<?xml version="1.0" encoding="UTF-8" ?>
<!DOCTYPE svg PUBLIC "-//W3C//DTD SVG 1.1//EN" "http://www.w3.org/Graphics/SVG/1.1/DTD/svg11.dtd">
<svg width="128pt" height="128pt" viewBox="0 0 128 128" version="1.1" xmlns="http://www.w3.org/2000/svg">
	<path fill="#333333" d=" M 94.79 1.70 C 97.23 0.43 100.64 0.15 102.97 1.85 C 110.32 6.28 117.67 10.70 125.04 15.10 C 127.97 16.41 127.34 20.25 126.86 22.81 C 124.91 24.72 121.92 24.82 119.66 23.39 C 113.06 19.39 106.41 15.48 99.83 11.45 C 96.03 15.47 92.81 20.04 89.32 24.33 C 88.53 27.62 88.58 31.41 89.28 34.72 C 92.80 39.03 96.00 43.69 99.92 47.62 C 106.43 43.55 113.07 39.69 119.62 35.69 C 121.87 34.01 125.98 34.23 127.08 37.15 C 127.54 39.53 127.38 42.66 124.99 43.97 C 117.28 48.62 109.53 53.22 101.83 57.89 C 99.63 59.30 96.56 59.20 94.74 57.19 C 91.10 53.14 88.00 48.63 84.40 44.55 C 80.30 43.75 75.98 44.99 71.92 43.85 C 69.94 43.22 69.27 41.05 68.65 39.30 C 60.33 39.42 52.01 39.43 43.69 39.30 C 44.39 35.25 45.83 31.21 45.18 27.01 C 45.26 24.46 43.62 22.22 43.68 19.71 C 52.02 19.66 60.36 19.68 68.70 19.70 C 69.32 17.98 70.01 15.91 71.92 15.23 C 75.98 14.09 80.34 15.40 84.40 14.48 C 88.06 10.40 91.19 5.84 94.79 1.70 Z" />
	<path fill="#333333" d=" M 14.48 11.53 C 21.55 9.49 29.74 11.94 34.25 17.82 C 38.81 23.21 39.67 31.32 36.59 37.64 C 33.04 45.22 24.07 49.70 15.88 47.88 C 7.61 46.29 0.99 38.45 1.03 29.99 C 0.55 21.70 6.57 13.77 14.48 11.53 Z" />
	<path fill="#ffffff" d=" M 15.48 19.57 C 23.12 16.00 32.48 23.80 30.15 31.93 C 28.86 39.45 18.63 42.97 12.93 37.91 C 6.57 33.29 8.29 22.42 15.48 19.57 Z" />
	<path fill="#333333" d=" M 18.41 24.48 C 22.15 23.33 25.97 27.37 24.70 31.06 C 23.74 34.77 18.29 36.17 15.89 33.08 C 13.18 30.42 14.72 25.26 18.41 24.48 Z" />
	<path fill="#333333" d=" M 38.41 48.06 C 49.70 66.14 59.82 85.00 71.00 103.14 C 78.62 103.77 86.30 103.08 93.94 103.45 C 96.76 103.58 98.64 106.42 98.45 109.09 C 98.42 114.03 98.66 118.99 98.30 123.93 C 98.13 125.90 96.35 126.94 94.93 128.00 L 14.14 128.00 C 11.84 127.40 9.76 125.56 9.91 123.00 C 9.79 118.01 9.73 113.01 9.95 108.02 C 9.93 105.35 12.50 103.33 15.05 103.41 C 22.09 103.20 29.15 103.61 36.19 103.22 C 26.07 85.43 15.53 67.86 5.05 50.28 C 9.22 53.20 13.83 55.93 19.07 56.10 C 26.34 56.86 33.87 53.82 38.41 48.06 Z" />
</svg>
